<?xml version="1.0" encoding="UTF-8" standalone="no"?>
<!DOCTYPE svg PUBLIC "-//W3C//DTD SVG 1.1//EN" "http://www.w3.org/Graphics/SVG/1.1/DTD/svg11.dtd">
<!-- Generiert durch Microsoft Visio, SVG Export Iot.svg template -->
<svg xmlns="http://www.w3.org/2000/svg" xmlns:xlink="http://www.w3.org/1999/xlink" xmlns:ev="http://www.w3.org/2001/xml-events"
		xmlns:v="http://schemas.microsoft.com/visio/2003/SVGExtensions/" width="3.93701in" height="3.93701in"
		viewBox="0 0 283.465 283.465" xml:space="preserve" color-interpolation-filters="sRGB" class="st3">
	<v:documentProperties v:langID="1031"/>

	<style type="text/css">
	<![CDATA[
		.st1 {fill:#ea700d;stroke:none;stroke-linecap:round;stroke-linejoin:round;stroke-width:0.749998}
		.st2 {fill:#ffffff;stroke:#ffffff;stroke-linecap:round;stroke-linejoin:round;stroke-width:0.25}
		.st3 {fill:none;fill-rule:evenodd;font-size:12px;overflow:visible;stroke-linecap:square;stroke-miterlimit:3}
	]]>
	</style>

	<g v:mID="0" v:index="1" v:groupContext="foregroundPage">
		<title>template</title>
		<v:pageProperties v:drawingScale="1" v:pageScale="1" v:drawingUnits="19" v:shadowOffsetX="8.99998"
				v:shadowOffsetY="-8.99998"/>
		<v:layer v:name="Verbinder" v:index="0"/>
		<g id="shape1-1" v:mID="1" v:groupContext="shape" transform="translate(0.000280035,-0.0004331)">
			<title>Tabelle.2</title>
			<rect x="0" y="-0.035" width="283.5" height="283.5" class="st1"/>
		</g>
		<g id="shape64-3" v:mID="64" v:groupContext="shape" transform="translate(76.024,-71.7223)">
			<title>Tabelle.64</title>
			<path d="M82.21 175.65 L82.21 155.99 A3.11413 3.11413 0 0 1 83.68 153.34 A5.37003 5.37003 -180 1 0 78.01 153.34 A3.11413
						 3.11413 0 0 1 79.49 155.99 L79.49 175.6 A23.2586 23.1046 -0 0 0 71.47 177.35 L71.47 173.85 A3.11413 3.11413
						 0 0 1 72.94 171.21 A5.37003 5.37003 -180 1 0 67.27 171.21 A3.11413 3.11413 0 0 1 68.75 173.85 L68.75 178.69
						 A23.2586 23.1046 -0 0 0 60.55 186.65 A15.5706 15.5706 -180 0 0 54.75 182.8 L54.75 176.69 A3.11413 3.11413
						 -180 0 0 53.65 174.32 L51.4 172.4 A3.11413 3.11413 0 0 1 50.34 169.53 A5.37003 5.37003 -180 1 0 46.63 173.81
						 A3.11413 3.11413 0 0 1 49.56 174.4 L50.91 175.53 A3.11413 3.11413 0 0 1 52.02 177.92 L52.02 182.05 A15.5706
						 15.5706 -180 0 0 35.03 203.7 A15.6788 15.5706 -0 0 0 21.17 216.05 L12.58 216.05 A3.11413 3.11413 0 0 1 9.93
						 214.58 A5.37003 5.37003 -180 1 0 9.93 220.24 A3.11413 3.11413 0 0 1 12.58 218.77 L20.85 218.77 A15.6788
						 15.5706 -0 0 0 22.37 225.89 L20.03 225.89 A3.11413 3.11413 -180 0 0 17.66 226.99 L15.74 229.24 A3.11413
						 3.11413 0 0 1 12.88 230.3 A5.37003 5.37003 -180 1 0 17.15 234.01 A3.11413 3.11413 0 0 1 17.74 231.08 L18.88
						 229.73 A3.11413 3.11413 0 0 1 21.26 228.62 L24.04 228.62 A15.6788 15.5706 -0 0 0 39.15 234.55 A21.7989 21.7989
						 -180 0 0 43.17 242.25 L43.17 246.59 A2.98972 2.98972 0 0 1 40.18 249.58 L39.2 249.58 A3.11413 3.11413 0
						 0 1 36.56 248.11 A5.37003 5.37003 -180 1 0 36.56 253.78 A3.11413 3.11413 0 0 1 39.2 252.31 L42.31 252.31
						 A3.11413 3.11413 -180 0 0 43.91 251.86 L44.29 251.63 A3.11413 3.11413 -180 0 0 45.42 250.45 L45.52 250.28
						 A3.11413 3.11413 -180 0 0 45.89 248.79 L45.89 245.05 A21.7989 21.7989 -180 0 0 54.73 249.64 L54.73 256.79
						 A3.11413 3.11413 0 0 1 53.26 259.44 A5.37003 5.37003 -180 1 0 58.93 259.44 A3.11413 3.11413 0 0 1 57.46
						 256.79 L57.46 250.15 A21.7989 21.7989 -180 0 0 63.41 250.06 L63.41 268.86 A3.11413 3.11413 0 0 1 62.3 271.24
						 L60.95 272.38 A3.11413 3.11413 0 0 1 58.02 272.97 A5.37003 5.37003 -180 1 0 61.73 277.24 A3.11413 3.11413
						 0 0 1 62.78 274.38 L65.04 272.46 A3.11413 3.11413 -180 0 0 66.14 270.09 L66.14 249.46 A21.7989 21.7989 -180
						 0 0 75.09 244.34 A11.678 11.678 -180 0 0 77.93 246.16 L77.93 249.35 A3.11413 3.11413 0 0 1 76.46 251.99
						 A5.37003 5.37003 -180 1 0 82.12 251.99 A3.11413 3.11413 0 0 1 80.65 249.35 L80.65 247.01 A11.678 11.678
						 -180 0 0 89.98 244.68 L89.98 248.55 A3.11413 3.11413 -180 0 0 91.08 250.92 L93.33 252.84 A3.11413 3.11413
						 0 0 1 94.39 255.7 A5.37003 5.37003 -180 1 0 98.1 251.43 A3.11413 3.11413 0 0 1 95.17 250.84 L93.82 249.7
						 A3.11413 3.11413 0 0 1 92.71 247.32 L92.71 241.6 A11.678 11.678 -180 0 0 94.42 235.63 A16.5438 16.3491 -0
						 0 0 108.18 233.74 L108.18 237.06 A3.11413 3.11413 -90 0 0 108.55 238.54 L108.65 238.71 A3.11413 3.11413
						 -180 0 0 109.78 239.9 L110.16 240.13 A3.11413 3.11413 -180 0 0 111.76 240.57 L114.87 240.57 A3.11413 3.11413
						 90 0 1 117.51 242.04 A5.37003 5.37003 -180 1 0 117.51 236.37 A3.11413 3.11413 90 0 1 114.87 237.85 L113.89
						 237.85 A2.98972 2.98972 0 0 1 110.9 234.86 L110.9 231.57 A16.5438 16.3491 -0 0 0 115.53 217.17 L118.88 217.17
						 A3.11413 3.11413 0 0 1 121.52 218.65 A5.37003 5.37003 -180 1 0 121.52 212.98 A3.11413 3.11413 0 0 1 118.88
						 214.45 L114.8 214.45 A16.5438 16.3491 -0 0 0 103.02 204.07 A23.2586 23.1046 -0 0 0 98.44 184.11 L98.44 181.03
						 A3.11413 3.11413 0 0 1 99.56 178.65 L100.91 177.51 A3.11413 3.11413 0 0 1 103.84 176.92 A5.37003 5.37003
						 -180 1 0 100.13 172.65 A3.11413 3.11413 0 0 1 99.07 175.51 L96.82 177.43 A3.11413 3.11413 -180 0 0 95.72
						 179.8 L95.72 181.3 A23.2586 23.1046 -0 0 0 82.21 175.65 ZM84.36 191.14 A1.00478 1.00478 0 0 1 84.46 191.14
						 L84.36 191.14 ZM47.3 170.4 L47.12 170.61 A1.55706 1.55706 0 0 1 47 170.74 A2.84164 2.84164 0 1 1 47.4 170.26
						 A1.55706 1.55706 0 0 1 47.3 170.4 ZM67.27 166.65 A2.84163 2.84165 -180 1 1 72.95 166.65 A2.84163 2.84165
						 -180 1 1 67.27 166.65 ZM78.01 148.78 A2.84164 2.84165 -180 1 1 83.69 148.78 A2.84164 2.84165 -180 1 1 78.01
						 148.78 ZM103.17 173.51 A1.55706 1.55706 0 0 1 103.07 173.37 A2.84164 2.84164 0 1 1 103.47 173.85 A1.55706
						 1.55706 0 0 1 103.35 173.73 L103.17 173.51 ZM126.08 212.97 A2.84164 2.84164 -90 1 1 126.08 218.65 A2.84164
						 2.84164 -90 1 1 126.08 212.97 ZM124.92 239.21 A2.84165 2.84164 0 1 1 119.23 239.21 A2.84165 2.84164 0 1
						 1 124.92 239.21 ZM97.43 254.84 L97.61 254.62 A1.55706 1.55706 0 0 1 97.73 254.5 A2.84164 2.84164 0 1 1 97.33
						 254.98 A1.55706 1.55706 0 0 1 97.43 254.84 ZM76.45 256.55 A2.84164 2.84164 -180 1 1 82.13 256.55 A2.84164
						 2.84164 -180 1 1 76.45 256.55 ZM58.69 276.38 A1.55706 1.55706 0 0 1 58.79 276.52 A2.84164 2.84164 0 1 1
						 58.39 276.04 A1.55706 1.55706 0 0 1 58.5 276.16 L58.69 276.38 ZM53.25 264 A2.84163 2.84164 -180 1 1 58.94
						 264 A2.84163 2.84164 -180 1 1 53.25 264 ZM29.15 250.94 A2.84164 2.84164 -180 1 1 34.84 250.94 A2.84164 2.84164
						 -180 1 1 29.15 250.94 ZM13.74 233.34 L13.96 233.52 A1.55706 1.55706 0 0 1 14.08 233.64 A2.84164 2.84164
						 0 1 1 13.6 233.24 A1.55706 1.55706 0 0 1 13.74 233.34 ZM5.37 214.57 A2.84164 2.84164 -90 1 1 5.37 220.25
						 A2.84164 2.84164 -90 1 1 5.37 214.57 Z" class="st2"/>
		</g>
	</g>
</svg>
